<svg id="visual" viewBox="0 0 900 600" width="900" height="600" xmlns="http://www.w3.org/2000/svg"
    xmlns:xlink="http://www.w3.org/1999/xlink" version="1.1">
    <rect width="900" height="600" fill="#e3e3e3"></rect>
    <g>
        <g transform="translate(781 435)">
            <path
                d="M95.7 -45.9C115.5 -21 117.2 23.8 98.2 49.7C79.2 75.5 39.6 82.5 1.6 81.6C-36.3 80.6 -72.6 71.7 -86.5 48.8C-100.4 25.9 -91.9 -11.1 -73.7 -35.1C-55.6 -59 -27.8 -69.9 5.1 -72.8C38 -75.8 75.9 -70.8 95.7 -45.9Z"
                fill="#6b9dcc"></path>
        </g>
        <g transform="translate(102 483)">
            <path
                d="M54.7 -28.7C66.7 -10.8 69.4 15.4 58.7 28.2C48 41.1 24 40.6 3.1 38.7C-17.7 36.9 -35.5 33.8 -44.1 22.2C-52.7 10.5 -52.3 -9.7 -43.4 -25.8C-34.5 -41.9 -17.3 -54 2.1 -55.1C21.4 -56.3 42.7 -46.7 54.7 -28.7Z"
                fill="#6b9dcc"></path>
        </g>
        <g transform="translate(789 140)">
            <path
                d="M28.4 -13.4C35.3 -4.6 38.1 9.5 32.7 18.6C27.3 27.6 13.6 31.6 3.4 29.6C-6.9 27.7 -13.7 19.8 -19.5 10.5C-25.2 1.3 -29.8 -9.3 -26.4 -16.1C-22.9 -23 -11.5 -26 -0.3 -25.9C10.8 -25.7 21.6 -22.2 28.4 -13.4Z"
                fill="#6b9dcc"></path>
        </g>
        <g transform="translate(381 238)">
            <path
                d="M64.9 -32.8C79.8 -11.7 84.6 19.9 72 46C59.5 72.1 29.8 92.7 3.7 90.5C-22.3 88.4 -44.7 63.6 -55.6 38.4C-66.4 13.3 -65.8 -12.2 -54.6 -31.1C-43.5 -50.1 -21.7 -62.5 1.6 -63.4C25 -64.4 50 -53.8 64.9 -32.8Z"
                fill="#6b9dcc"></path>
        </g>
        <g transform="translate(76 193)">
            <path
                d="M66.5 -40.4C82.8 -10.2 90.3 23.2 77.8 51.4C65.2 79.6 32.6 102.6 8.3 97.9C-16.1 93.1 -32.2 60.5 -48.4 30.2C-64.6 -0.1 -80.9 -28.1 -72.9 -53.6C-64.8 -79.1 -32.4 -102.1 -3.7 -100C25.1 -97.9 50.2 -70.7 66.5 -40.4Z"
                fill="#6b9dcc"></path>
        </g>
    </g>
</svg>